<svg id="Layer_1" data-name="Layer 1" xmlns="http://www.w3.org/2000/svg" viewBox="0 105 800 238"><defs><style>.cls-1{fill:#27303b;}</style></defs><title>Logo 16x9 Black</title><path class="cls-1" d="M164.09,237.39a117.09,117.09,0,0,1-1,13.22,75.31,75.31,0,0,1-2.84,12.95,61.46,61.46,0,0,1-5.1,11.75,38.38,38.38,0,0,1-7.62,9.59,34.14,34.14,0,0,1-10.51,6.48,37,37,0,0,1-13.73,2.38,36.72,36.72,0,0,1-13.63-2.38,34.75,34.75,0,0,1-10.56-6.48,39.58,39.58,0,0,1-7.76-9.59,58.19,58.19,0,0,1-5.19-11.75,81.53,81.53,0,0,1-2.93-12.95,91.6,91.6,0,0,1-1-13.22v-24.6a97,97,0,0,1,.92-13.13,79.47,79.47,0,0,1,2.89-13,59.17,59.17,0,0,1,5.14-11.8,40.09,40.09,0,0,1,7.67-9.64,33.68,33.68,0,0,1,10.51-6.52,37,37,0,0,1,13.73-2.39,37,37,0,0,1,13.72,2.39,34.36,34.36,0,0,1,10.52,6.47,39.5,39.5,0,0,1,7.66,9.6,61.28,61.28,0,0,1,5.19,11.79,73.11,73.11,0,0,1,2.89,13,117.09,117.09,0,0,1,1,13.22Zm-76.85-.18a96.44,96.44,0,0,0,.5,9.68,73,73,0,0,0,1.7,9.78L156,189.56a55.42,55.42,0,0,0-4.41-10.93,36.58,36.58,0,0,0-6.75-9,30,30,0,0,0-9.36-6.1,35.28,35.28,0,0,0-24.66-.05,29.91,29.91,0,0,0-9.31,6,34.78,34.78,0,0,0-6.71,8.9,56.33,56.33,0,0,0-4.36,10.84A79.24,79.24,0,0,0,88,201a92.12,92.12,0,0,0-.78,11.76Zm71.89-24.42q-.09-4.41-.51-9a81.74,81.74,0,0,0-1.33-9l-66.47,67a54.72,54.72,0,0,0,4.5,10.42,35.11,35.11,0,0,0,6.7,8.59,30.13,30.13,0,0,0,9.23,5.83,34.66,34.66,0,0,0,24.33-.09,30,30,0,0,0,9.32-6.06,35.15,35.15,0,0,0,6.65-8.91,55.86,55.86,0,0,0,4.36-10.83A74.53,74.53,0,0,0,158.3,249a112.49,112.49,0,0,0,.83-11.75Z"/><path class="cls-1" d="M237,236.66l35.17-44.07h6.61L240.11,241l40.67,51h-6.43l-37.46-46.64-37.27,46.64H193.1l40.67-51-38.65-48.38h6.61Z"/><path class="cls-1" d="M370.48,250.52h23.13v5H370.48v36.45h-5V255.48H300.7v-2.76l63.81-94.47h6Zm-62.07,0h57.11v-86.3l-7.71,12.67Z"/><path class="cls-1" d="M483.31,250.52h23.14v5H483.31v36.45h-4.95V255.48H413.54v-2.76l63.81-94.47h6Zm-62.06,0h57.11v-86.3l-7.72,12.67Z"/><path class="cls-1" d="M596.15,250.52h23.14v5H596.15v36.45h-5V255.48H526.37v-2.76l63.81-94.47h6Zm-62.07,0h57.11v-86.3l-7.71,12.67Z"/><path class="cls-1" d="M728.72,161.37,669.87,291.93h-5L723,163.21H643.34v-5h85.38Z"/><path class="cls-1" d="M800.11,340.62H-.11V104.51H800.11Zm-795-5.22H794.89V109.73H5.11Z"/></svg>