<?xml version="1.0" standalone="no"?>
<!DOCTYPE svg PUBLIC "-//W3C//DTD SVG 20010904//EN"
 "http://www.w3.org/TR/2001/REC-SVG-20010904/DTD/svg10.dtd">
<svg version="1.0" xmlns="http://www.w3.org/2000/svg"
 width="500.000000pt" height="500.000000pt" viewBox="0 0 500.000000 500.000000"
 preserveAspectRatio="xMidYMid meet">
<metadata>
Created by potrace 1.11, written by Peter Selinger 2001-2013
</metadata>
<g transform="translate(0.000000,500.000000) scale(0.100000,-0.100000)"
fill="#000000" stroke="none">
<path d="M2260 4990 c-591 -62 -1108 -307 -1526 -724 -388 -389 -627 -864
-710 -1411 -26 -168 -26 -542 0 -710 83 -547 322 -1022 710 -1411 389 -388
864 -627 1411 -710 168 -26 542 -26 710 0 547 83 1022 322 1411 710 326 327
543 706 654 1141 61 239 74 354 74 625 0 271 -13 386 -74 625 -111 435 -328
814 -654 1141 -388 387 -865 628 -1406 709 -124 19 -478 27 -600 15z m410 -70
c598 -46 1128 -289 1545 -705 746 -747 924 -1882 443 -2824 -111 -217 -264
-427 -443 -606 -747 -746 -1882 -924 -2824 -443 -441 226 -823 608 -1049 1049
-439 859 -332 1885 274 2638 491 609 1279 951 2054 891z"/>
<path d="M1553 4205 c-194 -42 -339 -209 -410 -471 l-28 -99 0 -385 0 -385 28
-100 c69 -257 208 -420 401 -471 68 -18 208 -18 281 1 204 54 342 233 407 530
9 43 13 160 13 420 0 311 -2 372 -18 445 -36 167 -115 321 -209 405 -119 107
-291 148 -465 110z m218 -45 c144 -27 262 -124 334 -274 23 -50 45 -101 48
-112 4 -18 -86 -113 -478 -510 l-482 -489 -14 60 c-11 46 -14 148 -14 425 1
362 1 366 27 461 14 53 43 132 64 175 99 202 298 304 515 264z m418 -558 c16
-131 14 -605 -4 -725 -53 -350 -233 -547 -500 -547 -138 0 -256 50 -341 144
-42 46 -134 213 -134 242 0 15 946 974 960 974 4 0 12 -40 19 -88z"/>
<path d="M2742 3683 c8 -10 131 -163 272 -341 l256 -322 -280 -350 c-154 -192
-280 -354 -280 -360 0 -5 12 -10 28 -10 24 0 59 41 292 334 146 184 267 335
270 335 3 1 127 -150 275 -334 238 -296 272 -335 297 -335 15 0 28 3 28 8 0 4
-126 165 -280 357 -154 193 -280 352 -280 355 0 3 119 155 265 338 146 182
265 334 265 337 0 3 -15 5 -32 4 -31 0 -47 -18 -260 -287 -125 -158 -238 -300
-251 -316 l-23 -28 -253 316 c-247 308 -254 316 -289 316 -33 0 -34 -1 -20
-17z"/>
<path d="M3980 3685 c0 -9 9 -15 25 -15 24 0 25 -2 25 -70 0 -56 3 -70 15 -70
12 0 15 14 15 70 0 68 1 70 25 70 16 0 25 6 25 15 0 12 -14 15 -65 15 -51 0
-65 -3 -65 -15z"/>
<path d="M4120 3615 c0 -69 3 -85 15 -85 11 0 15 13 16 53 l0 52 21 -52 c11
-29 26 -53 32 -53 7 0 22 26 33 58 l22 57 0 -57 c1 -32 6 -58 11 -58 6 0 10
35 10 85 0 107 -18 115 -52 23 l-22 -62 -22 50 c-13 27 -23 55 -23 62 -1 6
-10 12 -21 12 -18 0 -20 -7 -20 -85z"/>
<path d="M1498 1638 c-154 -218 -389 -578 -383 -587 4 -7 77 -11 216 -11 l209
0 0 -120 c0 -113 1 -120 20 -120 19 0 20 7 20 120 l0 119 78 3 c69 3 77 5 77
23 0 18 -8 20 -77 23 l-78 3 0 304 c0 294 -1 305 -19 305 -12 0 -35 -23 -63
-62z m42 -283 l0 -265 -178 0 -179 0 176 265 c97 145 177 265 179 265 1 0 2
-119 2 -265z"/>
<path d="M2072 1385 c-116 -173 -212 -321 -212 -330 0 -13 28 -15 215 -15
l215 0 0 -120 c0 -113 1 -120 20 -120 19 0 20 7 20 120 l0 120 75 0 c73 0 75
1 75 25 0 24 -2 25 -75 25 l-75 0 0 305 0 305 -23 0 c-18 0 -61 -58 -235 -315z
m215 -292 c-2 -2 -83 -2 -180 -1 l-176 3 177 265 177 265 3 -264 c1 -145 1
-266 -1 -268z"/>
<path d="M2824 1393 c-114 -169 -210 -318 -212 -330 l-4 -23 211 0 211 0 0
-120 0 -120 25 0 25 0 0 120 0 120 75 0 c73 0 75 1 75 25 0 24 -2 25 -75 25
l-75 0 -2 303 c-3 301 -3 302 -25 305 -18 3 -54 -45 -229 -305z m206 -38 l0
-265 -176 0 c-101 0 -174 4 -172 9 3 10 342 519 346 520 1 1 2 -118 2 -264z"/>
<path d="M3380 1675 l0 -25 259 -2 259 -3 -189 -418 c-104 -231 -189 -421
-189 -424 0 -2 10 -3 22 -1 19 3 52 69 214 428 106 234 193 435 193 448 l1 22
-285 0 -285 0 0 -25z"/>
</g>
</svg>
